<svg xmlns="http://www.w3.org/2000/svg" viewBox="0 0 56.02 68.95"><g id="Layer_2" data-name="Layer 2"><g id="Layer_1-2" data-name="Layer 1"><path d="M31.64,11.57q0,8.9-7.84,13.53a10.64,10.64,0,0,1-5.2,1.72H18a7.83,7.83,0,0,1-1.89-.14,1,1,0,0,1-.81-.95c0-.35.65-.76,2-1.23l2.6-.88q5.91-2.91,5.9-10.72a8.69,8.69,0,0,0-3.11-6.75,10.42,10.42,0,0,0-7.15-2.77q-3.9,0-3.9,2.07c0,1.71-.05,3.6-.14,5.66Q11,19.59,11,22.82q0,2.49.2,7.47t.19,7.47a4.27,4.27,0,0,0,1.72,3.55A35.51,35.51,0,0,0,16.38,43c1.15.59,1.73,1.26,1.73,2s-.54,1.19-1.62,1.19a29.75,29.75,0,0,1-3.66-.33,28.16,28.16,0,0,0-3.65-.34,30.63,30.63,0,0,0-3.06.14c-2.67.31-4.17.46-4.5.46Q0,46.16,0,45c0-.49.48-1,1.44-1.61a17.38,17.38,0,0,0,2.71-1.9,4.91,4.91,0,0,0,1.44-3.62c0-1.55,0-3.86.16-6.95s.16-5.39.16-6.94q0-2.57-.18-7.06c-.12-3.36-.19-5.7-.21-7A8.3,8.3,0,0,0,4.18,4.89,6.31,6.31,0,0,0,1.83,3C1,2.54.6,2.18.6,1.9.6.63,1.35,0,2.85,0A23,23,0,0,1,6.38.4,22.16,22.16,0,0,0,9.74.81c1,0,2.44-.05,4.38-.16S17.51.49,18.49.49A14.8,14.8,0,0,1,27.63,3.2,9.9,9.9,0,0,1,31.64,11.57Z"/><path d="M56,23.49c0,.65-.79,1.3-2.39,1.93q-2.77,1.13-3.51,2.5c-.64,1.66-1.69,4.1-3.17,7.31q-1.65,3.95-2.7,6.54-1.62,4-3.87,9.91-2.82,7.45-4.92,13.4a21.25,21.25,0,0,1-1,2.6,2.25,2.25,0,0,1-2,1.27q-1.34,0-2.32-3.87a75.53,75.53,0,0,0-2.88-9.21q-1.62-3.79-3.44-8.65-.6-1.62-3.1-8.54-1.94-5.46-3.44-9.22a5.79,5.79,0,0,0-3.73-3.79c-1.38-.4,4-1.27,4.38-1.4a12.67,12.67,0,0,0,2.71-1.15c1-.59,2.54-1.88,3-1.88a5.23,5.23,0,0,1,2,.28c.72.35,1.61.63,1,1.4a11.08,11.08,0,0,1-2,1.64c-1.16.82-1.86,1.64-1.86,2.83a19.59,19.59,0,0,0,1.37,5.24Q26,37.21,29.48,46.41q.6,1.91,1.86,5.73,1.06,3.06,2.22,3.06c.65,0,1.57-.93,2.74-2.78a29.46,29.46,0,0,0,2.43-4.74c.7-1.79,1.67-4.23,2.91-7.35q1.38-3.48,2.11-5.7L45,31.12a14.69,14.69,0,0,0,.49-3.91c0-.79-.72-1.59-2.16-2.39s-2.16-1.45-2.16-2c0-1.2.92-1.8,2.77-1.8a12.35,12.35,0,0,1,2.64.48,13,13,0,0,0,2.95.47,16.7,16.7,0,0,0,3-.42,10.17,10.17,0,0,1,1.76-.21C55.41,21.38,56,22.08,56,23.49Z"/></g></g></svg>